<?xml version="1.0" encoding="UTF-8" standalone="no"?>
<svg id="svg4136" xmlns:rdf="http://www.w3.org/1999/02/22-rdf-syntax-ns#" xmlns="http://www.w3.org/2000/svg" height="1879.4" viewBox="0 0 2070.2654 1879.415" width="2070.3" version="1.1" xmlns:cc="http://creativecommons.org/ns#" xmlns:dc="http://purl.org/dc/elements/1.1/">
<path id="path4169" d="m141.32 127.52c-7.3421 1.3947-8.4399 10.715-11.205 16.337-40.682 111.57-60.821 230.7-57.68 349.47 1.4741 58.49 6.1841 117.23 19.184 174.38 2.5943 11.57 16.016 13.662 25.602 16.371 70.039 18.151 139.79 37.406 209.7 56.04 26.972 7.0158 53.718 15.012 80.867 21.28 4.9379 1.4017 12.577 0.99236 13.297-5.5098 1.1458-16.434-2.7095-32.695-2.5556-49.169-2.1646-74.484 8.9967-149.44 32.562-220.18 3.6219-12.669 10.698-24.565 11.918-37.804-0.57645-6.7082-7.9364-10.121-11.571-15.216-93.281-95.31-187.64-189.57-282.51-283.3-7.9071-7.1694-14.904-15.619-23.516-21.883-1.296-0.51241-2.6805-0.91004-4.0879-0.82617z" fill="#803300"/>
<path id="path4167" d="m1928 127.91c-7.843 1.0599-11.763 9.4472-17.692 13.815-100.08 98.596-199.81 197.56-298.69 297.36-5.4374 4.0202-8.0614 11.186-5.2422 17.561 27.585 76.031 45.711 156.43 43.528 237.68 0.042 19.396-2.8824 38.65-3.3191 58.071-0.5518 6.1537 5.247 10.796 11.152 9.2949 22.919-4.2642 45.113-11.844 67.742-17.429 76.526-20.566 153.13-40.864 229.6-61.631 10.858-2.9472 22.632-8.9919 25.506-20.868 5.0818-20.432 6.1418-41.642 9.5996-62.383 8.5916-64.448 11.284-129.77 5.7329-194.61-7.4909-90.789-26.185-180.95-58.204-266.33-1.9887-4.1615-4.1149-10.603-9.7129-10.541z" fill="#803300"/>
<g fill="#a40">
<path id="path4165" d="m1550.8 489.3c-6.1649 1.114-9.4415 7.8937-14.303 11.373-66.871 65.384-133.33 131.21-198.7 198.1-5.444 4.1207-7.8302 11.701-3.8273 17.691 15 28.957 34.368 55.467 49.316 84.444 1.9523 3.256 2.0568 7.9406-2.0957 9.5059-12.867 7.1235-17.828 22.076-25.391 33.811-43.08 78.648-86.014 157.4-129.03 236.07-24.178 44.629-49.405 88.707-72.725 133.79-2.5895 4.3234-3.3029 12.872 3.3594 13.59 14.065 0.034 27.417-5.8246 40.882-9.292 116.14-35.394 219.8-110.04 290-209.12 76.486-106.64 113.61-240.75 102.3-371.54-4.1719-47.686-13.701-95.145-30.246-140.11-1.7091-3.9415-4.5262-8.8275-9.5547-8.3066z"/>
<path id="path4163" d="m516.94 489.36c-8.4479 1.4912-10.067 11.991-12.973 18.608-31.705 94.653-37.296 197.87-15.404 295.29 31.297 142.81 120.11 272.37 243.27 351.47 52.185 33.965 110.44 58.043 170.85 72.827 5.8208 1.6924 13.192 2.731 18.51-0.6007 3.3366-5.6486-2.361-11.971-4.1211-17.279-31.024-59.364-64.833-117.23-97.1-175.92-38.056-68.747-76.189-137.46-114.63-205.97-4.6649-8.6292-11.96-15.352-19.98-20.743 0.0367-6.9061 5.5976-12.73 8.4185-18.819 13.727-24.101 29.61-47.032 41.941-71.896 3.3384-5.8019 0.62792-12.528-4.1562-16.566-65.15-66.66-131.53-132.15-198.13-197.38-5.2288-3.992-9.0114-10.721-15.268-12.978-0.40633-0.0441-0.81626-0.0587-1.2246-0.041z"/>
<path id="path4161" d="m1080.6 590.96c-53.328 0.43481-106.7 0.0759-159.99 2.2109-5.9569 1.9386-2.4004 9.1167 0.75391 11.982 26.261 29.134 54.922 56.018 82.353 84.042 10.448 9.5287 19.487 21.182 31.862 28.294 7.2214 2.5474 11.956-6.1008 16.887-9.7241 35.068-34.566 70.081-69.244 103.72-105.2 3.9455-5.007-1.0898-11.946-7.0348-11.116-22.839-0.74396-45.706-0.44775-68.555-0.48981z"/>
</g>
<g>
<path id="path4159" d="m857.51 610.9c-7.7812 1.4783-10.021 10.942-14.464 16.337-29.697 48.354-58.993 96.971-87.877 145.81-3.6814 5.6746-5.9505 14.919 1.2441 18.963 17.464 9.6204 36.304 16.606 54.204 25.411 63.386 29.072 126.53 58.71 190.14 87.269 6.4423 3.8456 15.8-1.9853 14.338-9.5-0.3786-40.145 0.7523-80.323-0.5293-120.45 0-9.4154-3.9612-18.547-11.618-24.242-7.0176-5.702-12.443-14.667-21.515-17.159-7.4274 0.49231-7.5591 10.351-9.7695 15.66-6.1573 21.095-23.502 39.266-45.793 42.906-23.577 4.579-50.15-5.2164-62.393-26.5-15.288-24.467-10.939-60.305 12.504-78.297 9.7042-8.5509 22.77-10.484 34.186-15.566 6.0556-2.911 2.8302-10.333-0.875-13.777-14.097-15.117-28.43-30.191-44.141-43.645-2.2341-1.6153-4.7624-3.322-7.6426-3.2207z" fill="#deaa87"/>
<path id="path4157" d="m1214.6 614.9c-9.9111 2.0512-15.989 11.588-23.316 17.79-9.606 10.526-21.578 19.365-28.92 31.728-2.8823 6.4133 5.0647 9.8181 9.862 11.279 24.248 7.7629 43.962 30.566 44.078 56.773 1.1218 33.807-31.632 63.983-65.295 60.494-24.718-1.5171-46.178-20.512-52.391-44.188-1.2615-5.0306-5.3516-12.549-11.629-9.4707-8.5004 5.0801-15.368 12.674-22.016 19.916-6.6234 11.16-4.0107 24.985-4.7969 37.352 0.5545 29.98-0.5237 59.995 0.6309 89.955 0.2456 6.2745 2.1154 16.068 10.26 15.779 13.839-1.9841 25.637-10.635 38.412-15.802 67.649-31.437 135.62-62.196 203.28-93.587 6.3365-2.3732 7.3576-10.082 4.2871-15.457-11.833-24.345-27.692-46.49-41.143-69.947-17.985-29.206-34.919-59.085-53.403-87.964-1.8868-2.4684-4.5914-4.8318-7.9028-4.6516z" fill="#deaa87"/>
<path id="path4155" d="m125.19 759.43c-6.2679-0.40333-7.9302 7.0457-6.1582 11.811 8.3857 30.785 20.654 60.408 33.157 89.722 39.082 88.923 91.686 171.91 155.36 245.24 10.668 6.8219 23.065 0.038 34.071-2.1145 59.02-16.077 118.24-31.444 177.2-47.721 5.8117-1.7874 15.331-5.0366 13.182-12.915-5.3449-12.428-14.663-22.754-21.212-34.574-30.382-48.166-52.828-100.96-69.126-155.44-1.9718-8.6357-9.8576-13.827-18.176-15.213-95.704-25.862-191.5-51.316-287.24-77.027-3.6267-0.84647-7.3021-1.8448-11.057-1.7695z" fill="#803300"/>
<path id="path4153" d="m1942.7 759.96c-22.751 2.7324-44.482 10.808-66.678 16.203-76.141 20.71-152.54 40.473-228.61 61.403-8.786 2.5118-19.363 6.4164-21.39 16.568-19.338 65.719-48.77 128.54-88.336 184.42-4.0189 4.6283-1.6886 11.569 3.8886 13.6 20.741 9.555 43.508 13.635 65.34 19.994 45.749 11.627 91.076 24.853 136.91 36.118 7.0735 1.9729 15.831 2.1479 20.558-4.5117 45.273-51.62 84.236-108.7 117.26-168.86 28.455-52.249 51.959-107.23 70.212-163.83 2.0062-4.7488-0.5855-11.198-6.2988-11.023-0.946-0.0948-1.8983-0.10363-2.8477-0.0703z" fill="#803300"/>
<path id="path4151" d="m1288 855.33c-14.281 2.6867-26.708 11.201-40.076 16.552-68.583 30.883-136.53 63.176-205.12 94.034-12.051 5.0018-23.482-4.3705-34.286-8.4168-69.808-32.224-139.65-64.393-209.55-96.394-5.8928-1.738-13.096-6.8329-19.111-3.1152-3.9837 5.6076 1.4795 12.538 3.4531 17.924 24.237 44.877 49.51 89.2 74.104 133.89 37.392 66.52 73.922 133.52 111.46 199.96 20.102 36.13 39.636 72.615 60.51 108.29 2.9148 5.2389 11.165 7.8787 14.883 2.0118 33.719-58.842 65.199-118.94 98.06-178.26 47.776-86.776 95.112-173.8 142.73-260.66 3.0574-7.3344 9.2518-14.766 7.9297-23.1-0.7576-1.9946-2.9863-2.8504-4.9863-2.7129z" fill="#f4e3d7"/>
<path id="path4149" d="m1484.1 1112.1c-11.237 0.8395-17.823 11.819-25.888 18.311-62.762 60.117-138.26 106.72-220.28 135.16-9.2947 4.0867-20.257 4.9986-28.424 11.294-5.046 6.0988 2.2107 13.332 5.957 18.037 25.258 27.117 52.105 52.723 78.086 79.147 8.8287 7.6156 17.062 18.92 29.631 19.767 11.96-1.4291 22.825-7.551 34.357-10.804 119.66-42.515 230.86-108.99 324.61-194.66 4.023-4.8421 12.014-9.9522 10.227-17.198-3.5531-6.6394-12.783-6.4757-19.012-9.1304-61.645-16.542-123.25-33.307-184.98-49.532-1.415-0.2456-2.8488-0.4141-4.2871-0.3887z" fill="#803300"/>
<path id="path4147" d="m582.58 1113.4c-23.249 2.6577-45.433 10.908-68.085 16.438-41.916 11.716-84.245 21.993-125.99 34.274-5.4008 1.6248-14.478 5.4935-11.026 12.636 7.5537 11.056 19.176 18.626 28.725 27.859 97.683 84.48 212.69 148.98 335.73 188.2 7.3984 3.0259 14.877-1.1194 19.579-6.8078 33.421-32.093 66.576-64.543 98.144-98.466 4.2442-4.528 0.97022-11.381-4.5781-12.859-22.606-9.0939-46.039-15.943-68.221-26.184-70.961-31.018-135.67-75.439-189.83-130.68-3.9582-3.4702-9.2738-4.773-14.447-4.4082z" fill="#803300"/>
<path id="path4144" d="m951.38 1283.2c-6.9202 0.328-10.548 7.7502-15.742 11.404-68.069 65.774-134.95 132.78-200.93 200.65-5.0652 6.3843-12.767 11.255-15.836 18.958-4.1599 20.381 1.7148 41.176 6.5406 60.925 14.536 51.432 37.826 101.53 74.414 141.05 5.5784 5.1588 13.299 13.247 21.541 9.2556 7.933-8.0489 12.227-19.101 18.055-28.7 55.573-101.79 111.49-203.4 167.1-305.16 6.6882-11.886-1.1334-24.724-6.8672-35.153-13.185-22.467-24.48-46.118-39.146-67.675-2.214-2.8589-5.2165-5.8059-9.1289-5.5566z" fill="#a40"/>
<path id="path4142" d="m1116.9 1288c-8.5055 1.5111-9.3708 12.214-13.613 18.213-11.046 20.01-22.165 39.994-33.703 59.709-6.4231 13.162 2.6256 26.762 8.2185 38.421 30.136 54.468 60.714 108.7 90.698 163.25 28.043 49.936 55.503 100.24 84.638 149.53 5.6109 6.1562 13.563 0.8567 18.199-3.6797 22.551-21.146 36.483-49.574 49.144-77.323 15.689-36.903 28.278-76.056 29.784-116.38-3.288-11.64-13.78-19.399-21.275-28.341-54.749-55.929-110.44-110.93-165.65-166.4-13.276-12.272-25.266-26.58-41.039-35.746-1.686-0.777-3.5245-1.3617-5.4023-1.2578z" fill="#a40"/>
<path id="rect4135" d="m1038.4 1436.8c-8.25 1.7686-11.36 11.329-15.639 17.551-53.896 99.162-108.56 197.91-162.32 297.14-3.6993 5.8257-2.5842 13.884 3.3027 17.826 17.583 12.512 37.629 21.26 57.519 29.443 36.776 14.036 76.276 22.191 115.76 20.008 25.304-0.3592 50.774-1.8586 75.231-8.874 35.485-9.3977 69.881-24.244 99.884-45.517 5.9941-3.8189 9.4403-11.944 4.9102-18.252-50.316-90.555-100.7-181.07-151.06-271.6-7.3107-11.89-12.239-25.69-22.16-35.753-1.5151-1.2377-3.4335-2.1219-5.4277-1.9726z" fill="#f4e3d7"/>
</g>
<path id="path4146" d="m1013.6 1878.5c-194.16-15.021-337.99-156.66-354.59-349.18-3.0464-35.344-1.8541-40.249 13.722-56.447 19.35-20.123 19.618-19.682-22.201-36.608-546.04-221-798-840.37-561.91-1381.2 10.562-24.201 23.28-51.13 25.08-53.122 4.3806-4.8405-12.179-20.953 324.47 315.7 174.67 174.67 318.22 317.99 319 318.48 7.4478 4.7137 15.807-6.6473 61.661-83.801 9.5055-15.994 13.115-19.839 19.47-20.743 12.961-1.8427 396.28-0.0338 399.45 1.885 3.5609 2.1552 2.5643 0.63513 29.236 44.59 34.94 57.581 36.79 59.963 44.265 56.99 2.2223-0.88383 98.754-96.596 287.85-285.41 365.77-365.22 349.97-349.58 353.12-349.58 4.4593 0 8.2785 7.1708 29.56 55.5 235.6 535.11-16.1 1158.3-556.7 1378.4-12.375 5.0387-25.317 10.314-28.759 11.723-15.36 6.2866-14.999 12.434 1.7529 29.871 29.738 30.955 2.3613 154.95-52.318 236.96-72.009 108-207.28 175.56-332.18 165.9zm68-64.332c39.218-6.0966 77.319-19.746 112.14-40.174 22.746-13.344 26.33-17.826 21.539-26.934-2.9186-5.5483-27.509-49.761-39.19-70.461-5.8967-10.45-21.17-37.9-33.941-61-23.951-43.322-25.967-46.949-45.309-81.5-6.3117-11.275-20.333-36.475-31.159-56-29.347-52.93-24.551-53.274-55.748 4-11.534 21.175-26.067 47.725-32.296 59-6.2288 11.275-15.353 27.925-20.277 37-10.556 19.457-39.294 71.983-55.257 101-14.673 26.671-34.393 62.809-38.646 70.823-7.0646 13.31-4.3849 16.607 26.383 32.458 36.791 18.954 73.931 29.986 114.76 34.086 12.975 1.3031 63.543-0.2061 77-2.298zm-260.11-91.319c1.7542-1.7875 7.7437-11.575 13.31-21.75s18.98-34.7 29.808-54.5 23.639-43.2 28.47-52c4.8305-8.8 15.422-28.15 23.538-43 14.278-26.128 32.807-59.892 51.036-93 4.8451-8.8 11.128-20.275 13.962-25.5 2.8337-5.225 8.2215-15.125 11.973-22 18.99-34.803 20.322-24.592-10.432-80-25.187-45.378-26.488-47.1-34.338-45.48-4.8352 0.9979-225 221.05-227.37 227.26-9.7834 25.58 17.064 113.07 50.086 163.22 25.102 38.122 42.476 54.378 49.962 46.75zm442.77-6.5053c34.606-22.698 79.399-123.47 83.482-187.8 1.0502-16.548 11.658-4.4051-111.99-128.19-131.35-131.5-115.65-120.31-130.71-93.173-4.708 8.4839-14.824 26.675-22.479 40.425-19.518 35.055-24.6 17.066 35.034 124 9.2016 16.5 19.325 34.725 22.496 40.5 40.103 73.026 112.65 202.01 114.6 203.75 3.0231 2.6971 5.9796 2.85 9.5705 0.4947zm-510.71-326.2c4.736-2.2213 103.87-101.13 105.33-105.08 2.3259-6.3313 0.2177-7.6745-26.143-16.658-84.212-28.698-162.83-76.761-225.82-138.06-21.038-20.473-9.3267-20.954-102.36 4.2009-25.607 6.9233-47.386 12.763-85.712 22.983-48.956 13.055-48.428 12.287-23.788 34.514 91.739 82.754 204.36 149.25 323 190.71 28.701 10.03 29.519 10.2 35.5 7.3949zm590.03-4.4898c110.99-37.5 215.45-96.067 305.97-171.54 32.094-26.76 42.228-37.012 41.085-41.566-1.0682-4.256-2.1348-4.6213-52.585-18.006-9.625-2.5535-28.3-7.5634-41.5-11.133s-39.75-10.696-59-15.838c-19.25-5.1411-38.366-10.283-42.48-11.427-14.216-3.9513-15.77-3.3881-30.875 11.189-68.782 66.376-143.75 112.26-233.05 142.63-31.249 10.628-33.661 4.9012 28.205 66.952 64.099 64.29 54.554 58.767 84.233 48.739zm-301.22-66.44c1.299-1.4866 25.246-44.45 39.658-71.15 11.309-20.953 19.4-35.815 28.034-51.5 4.8444-8.8 18.132-33.1 29.527-54 11.396-20.9 21.058-38.45 21.473-39 0.4146-0.55 6.9502-12.475 14.523-26.5 7.5732-14.025 17.909-32.925 22.968-42 5.0594-9.075 11.589-21 14.51-26.5 2.9211-5.5 10.252-19 16.291-30 21.556-39.264 39.108-71.23 47.222-86 21.685-39.477 20.77-41.698-11.019-26.721-8.8 4.1461-20.275 9.4414-25.5 11.767-14.409 6.4142-38.615 17.529-105.5 48.443-10.45 4.83-30.025 13.848-43.5 20.04-13.475 6.1922-30.35 13.957-37.5 17.255-18.757 8.6515-18.515 8.6711-45-3.6492-11.55-5.3729-25.275-11.718-30.5-14.1-5.225-2.3819-21.65-9.9429-36.5-16.802-32.278-14.909-58.006-26.729-73-33.538-6.05-2.7471-18.425-8.4394-27.5-12.65-75.997-35.258-73.336-38.264-31.948 36.1 15.566 27.969 32.883 59.178 38.482 69.353 5.5991 10.175 11.768 21.2 13.709 24.5 3.5192 5.9838 25.978 46.373 34.754 62.5 2.544 4.675 12.407 22.45 21.918 39.5 9.5108 17.05 18.887 33.925 20.836 37.5 1.9488 3.575 8.1483 14.6 13.777 24.5 5.6285 9.9 14.06 24.975 18.737 33.5 20.371 37.133 55.845 100.88 58.423 104.98 4.2145 6.7116 9.0186 8.2981 12.626 4.1697zm-123.36-93.098c4.3557-2.7555 1.5348-8.2267-72.466-140.55-6.7667-12.1-20.063-35.95-29.548-53-16.005-28.771-20.916-37.65-37.891-68.5-3.4802-6.325-8.11-14.65-10.289-18.5-3.5077-6.1989-18.083-32.295-40.213-72-3.9851-7.15-11.925-21.514-17.645-31.92-10.572-19.234-14.293-24.106-23.002-30.114-8.0282-5.5394-9.4792-2.0128 23.015-55.94 26.991-44.795 26.866-44.486 21.189-52.125-5.8239-7.8378-210.53-211.27-213.26-211.93-6.8151-1.6478-10.328 5.5555-20.882 42.818-83.502 294.82 93.738 608.1 388.54 686.77 10.45 2.7886 19.45 5.2296 20 5.4245 2.1178 0.7505 11.07 0.4372 12.45-0.4357zm266.16-5.9742c302.83-85.982 473.91-404.06 379.21-705.08-6.7378-21.419-9.0498-25.006-15.164-23.528-2.9428 0.71146-211.22 208.02-213.72 212.73-3.5661 6.7149-3.7278 6.3679 25.046 53.739 31.856 52.446 30.506 48.052 17.456 56.831-6.258 4.2096-11.912 13.816-53.695 91.23-5.195 9.625-12.496 22.9-16.225 29.5-3.7286 6.6-11.268 20.325-16.756 30.5-5.487 10.175-16.62 30.65-24.739 45.5-8.1194 14.85-18.814 34.425-23.765 43.5-4.9515 9.075-15.307 27.975-23.011 42-63.676 115.91-64.892 118.18-65.493 122.4-1.1767 8.2579 3.7688 8.3662 30.855 0.6756zm-842.31-118.5c9.1838-2.4513 25.698-6.9155 36.698-9.9203 11-3.0049 31.475-8.4627 45.5-12.129 14.025-3.6659 27.525-7.2965 30-8.0681s17.386-4.7801 33.135-8.9079c49.399-12.947 47.855-11.357 32.931-33.904-36.536-55.199-60.093-105.37-79.955-170.3-3.9139-12.794-6.2124-15.1-18.232-18.297-4.6089-1.2257-20.53-5.5263-35.38-9.5568s-36.675-9.9036-48.5-13.051c-11.825-3.1476-27.8-7.4172-35.5-9.4878-7.7-2.0707-26.15-6.975-41-10.898-14.85-3.9235-34.2-9.1107-43-11.527-21.832-5.995-69.788-18.879-81.975-22.025-20.248-5.2256-21.013-3.0803-10.172 28.539 30.31 88.407 77.32 177.05 135.21 254.95 16.239 21.852 45.28 57.859 46.79 58.015 0.08 0.01 1.8756 0.6172 3.9897 1.3533 4.6368 1.6144 6.8041 1.2624 29.458-4.7845zm1416.6 3.8779c5.8424-3.8281 40.482-47.171 60.985-76.309 53.302-75.749 92.888-152.84 123.22-239.97 12.098-34.749 16.804-33.964-67.124-11.193-23.263 6.3119-75.519 20.299-183 48.983-67.995 18.146-61.455 14.69-68.099 35.991-5.9944 19.219-17.216 50.073-22.742 62.531-12.151 27.393-17.323 38.102-26.208 54.268-10.538 19.176-20.857 36.078-31.656 51.857-13.625 19.907-20.64 16.519 100.21 48.389 12.375 3.2637 40.725 10.876 63 16.915 42.438 11.507 45.98 12.094 51.418 8.5318zm-748.87-203.92 2.4545-2.4545v-65.73c0-77.478 1.6784-68.359-15.752-85.574-16.699-16.494-18.587-16.59-22.91-1.1642-8.772 31.302-32.76 49.54-63.303 48.13-68.718-3.1722-81.08-99.727-15.39-120.21 22.25-6.9377 22.507-5.7034-7.4657-35.868-27.405-27.58-29.65-29.035-35.388-22.925-2.2764 2.4233-23.594 37.225-60.794 99.25-6.4324 10.725-16.979 28.261-23.437 38.968-20.899 34.651-21.194 32.474 6.0667 44.755 8.7303 3.9331 22.398 10.166 30.373 13.851 14.005 6.4715 36.85 17.004 117.5 54.176 20.9 9.6328 42.725 19.649 48.5 22.259 5.775 2.6094 14.1 6.4348 18.5 8.5009 15.579 7.3152 17.414 7.667 21.045 4.0354zm101.17-18.439c71.836-33.141 115.69-53.323 132.78-61.115 28.121-12.815 54.565-24.926 62.17-28.473 15.229-7.1029 15.351-6.6666-16.186-58.019-7.6222-12.411-27.972-46.146-62.656-103.86-12.557-20.897-11.763-21.054-41.013 8.1203-28.428 28.355-28.509 28.59-12.053 34.708 45.164 16.791 57.919 69.219 24.833 102.07-33.32 33.085-87.716 20.011-102.09-24.537-4.8393-14.998-7.5476-15.162-21.646-1.3102-15.292 15.024-13.947 6.8847-13.629 82.517 0.345 81.933-6.0253 75.51 49.486 49.9zm-695.02-123.93c3.0937-1.9671 3.3843-6.2587 1.6318-24.096-7.9991-81.412 5.9389-183.78 35.885-263.57 6.4739-17.249 7.4033-20.936 6.3619-25.243-0.8879-3.6721-310.5-313.82-315.41-315.96-6.0183-2.6152-7.97-0.43617-13.692 15.287-28.23 77.566-46.867 161.34-53.922 242.37-7.6728 88.122-2.2128 194.15 13.938 270.66 3.7839 17.925 3.4521 17.694 38.021 26.42 12.236 3.0884 30.464 7.9561 82 21.898 34.105 9.2261 51.903 13.991 78.5 21.017 10.725 2.833 25.8 6.9027 33.5 9.0438s23.675 6.4517 35.5 9.5791 27.575 7.3637 35 9.4139c13.308 3.6746 20.36 4.6647 22.687 3.185zm1266.5-5.75c13.336-3.5979 29.873-8.0613 36.748-9.9186 13.422-3.626 25.341-6.8172 73-19.546 16.775-4.4802 44.45-11.904 61.5-16.497s43.825-11.777 59.5-15.965c69.849-18.661 62.696-11.602 70.964-70.032 5.0196-35.475 6.0434-44.496 9.0795-80 10.029-117.28-8.5777-258.51-50.008-379.56-10.9-31.849-12.48-34.335-19.723-31.035-3.0742 1.4007-312.57 309.29-315.35 313.71-2.5908 4.1188-2.4755 6.9842 0.6294 15.651 35.389 98.778 47.937 184.03 40.056 272.15-2.8609 31.987-4.0946 31.214 33.605 21.043zm-639.65-40.358c6.8682-5.1058 110.27-109.49 111.35-112.42 1.4164-3.812-0.1306-6.4463-4.2164-7.1796-8.9573-1.6078-228.65-0.0241-230.33 1.6605-3.6724 3.6728-1.7902 5.8242 54.405 62.189 64.348 64.542 60.812 61.677 68.789 55.747z"/>
</svg>
